<mxfile host="app.diagrams.net" agent="Mozilla/5.0 (Windows NT 10.0; Win64; x64) AppleWebKit/537.36 (KHTML, like Gecko) Chrome/141.0.0.0 Safari/537.36" version="28.0.7">
  <diagram name="Page-1" id="BEhRw7ngG6-zHkZg0a8p">
    <mxGraphModel dx="1678" dy="874" grid="1" gridSize="10" guides="1" tooltips="1" connect="1" arrows="1" fold="1" page="1" pageScale="1" pageWidth="850" pageHeight="1100" math="0" shadow="0">
      <root>
        <mxCell id="0" />
        <mxCell id="1" parent="0" />
        <mxCell id="KTEVZOgNWzoaT1Ab69OT-12" style="edgeStyle=orthogonalEdgeStyle;rounded=0;orthogonalLoop=1;jettySize=auto;html=1;exitX=1;exitY=0.25;exitDx=0;exitDy=0;entryX=0;entryY=0.5;entryDx=0;entryDy=0;" edge="1" parent="1" source="KTEVZOgNWzoaT1Ab69OT-1" target="KTEVZOgNWzoaT1Ab69OT-8">
          <mxGeometry relative="1" as="geometry" />
        </mxCell>
        <mxCell id="KTEVZOgNWzoaT1Ab69OT-14" style="edgeStyle=orthogonalEdgeStyle;rounded=0;orthogonalLoop=1;jettySize=auto;html=1;exitX=1;exitY=0.5;exitDx=0;exitDy=0;" edge="1" parent="1" source="KTEVZOgNWzoaT1Ab69OT-1" target="KTEVZOgNWzoaT1Ab69OT-9">
          <mxGeometry relative="1" as="geometry" />
        </mxCell>
        <mxCell id="KTEVZOgNWzoaT1Ab69OT-15" style="edgeStyle=orthogonalEdgeStyle;rounded=0;orthogonalLoop=1;jettySize=auto;html=1;exitX=1;exitY=0.75;exitDx=0;exitDy=0;entryX=0;entryY=0.5;entryDx=0;entryDy=0;" edge="1" parent="1" source="KTEVZOgNWzoaT1Ab69OT-1" target="KTEVZOgNWzoaT1Ab69OT-10">
          <mxGeometry relative="1" as="geometry" />
        </mxCell>
        <mxCell id="KTEVZOgNWzoaT1Ab69OT-1" value="API Gateway" style="rounded=0;whiteSpace=wrap;html=1;" vertex="1" parent="1">
          <mxGeometry x="320" y="330" width="120" height="60" as="geometry" />
        </mxCell>
        <mxCell id="KTEVZOgNWzoaT1Ab69OT-3" style="edgeStyle=orthogonalEdgeStyle;rounded=0;orthogonalLoop=1;jettySize=auto;html=1;exitX=1;exitY=0.25;exitDx=0;exitDy=0;entryX=0;entryY=0.25;entryDx=0;entryDy=0;" edge="1" parent="1" source="KTEVZOgNWzoaT1Ab69OT-2" target="KTEVZOgNWzoaT1Ab69OT-1">
          <mxGeometry relative="1" as="geometry" />
        </mxCell>
        <mxCell id="KTEVZOgNWzoaT1Ab69OT-4" style="edgeStyle=orthogonalEdgeStyle;rounded=0;orthogonalLoop=1;jettySize=auto;html=1;exitX=1;exitY=0.5;exitDx=0;exitDy=0;entryX=0;entryY=0.5;entryDx=0;entryDy=0;" edge="1" parent="1" source="KTEVZOgNWzoaT1Ab69OT-2" target="KTEVZOgNWzoaT1Ab69OT-1">
          <mxGeometry relative="1" as="geometry" />
        </mxCell>
        <mxCell id="KTEVZOgNWzoaT1Ab69OT-5" style="edgeStyle=orthogonalEdgeStyle;rounded=0;orthogonalLoop=1;jettySize=auto;html=1;exitX=1;exitY=0.75;exitDx=0;exitDy=0;entryX=0;entryY=0.75;entryDx=0;entryDy=0;" edge="1" parent="1" source="KTEVZOgNWzoaT1Ab69OT-2" target="KTEVZOgNWzoaT1Ab69OT-1">
          <mxGeometry relative="1" as="geometry" />
        </mxCell>
        <mxCell id="KTEVZOgNWzoaT1Ab69OT-2" value="EdenLens&amp;nbsp;&lt;div&gt;Client&lt;/div&gt;" style="rounded=0;whiteSpace=wrap;html=1;" vertex="1" parent="1">
          <mxGeometry x="97" y="330" width="120" height="60" as="geometry" />
        </mxCell>
        <mxCell id="KTEVZOgNWzoaT1Ab69OT-8" value="User&amp;nbsp;&lt;div&gt;Microservice&lt;/div&gt;" style="rounded=0;whiteSpace=wrap;html=1;" vertex="1" parent="1">
          <mxGeometry x="560" y="211" width="120" height="60" as="geometry" />
        </mxCell>
        <mxCell id="KTEVZOgNWzoaT1Ab69OT-9" value="Project Store&lt;br&gt;&lt;div&gt;Microservice&lt;/div&gt;" style="rounded=0;whiteSpace=wrap;html=1;" vertex="1" parent="1">
          <mxGeometry x="560" y="330" width="120" height="60" as="geometry" />
        </mxCell>
        <mxCell id="KTEVZOgNWzoaT1Ab69OT-10" value="Analytics&lt;br&gt;&lt;div&gt;Microservice&lt;/div&gt;" style="rounded=0;whiteSpace=wrap;html=1;" vertex="1" parent="1">
          <mxGeometry x="560" y="451" width="120" height="60" as="geometry" />
        </mxCell>
        <mxCell id="KTEVZOgNWzoaT1Ab69OT-16" value="User&lt;div&gt;Database&lt;/div&gt;" style="shape=cylinder3;whiteSpace=wrap;html=1;boundedLbl=1;backgroundOutline=1;size=15;" vertex="1" parent="1">
          <mxGeometry x="630" y="90" width="60" height="80" as="geometry" />
        </mxCell>
        <mxCell id="KTEVZOgNWzoaT1Ab69OT-18" value="Analytics&amp;nbsp;&lt;br&gt;Database" style="shape=cylinder3;whiteSpace=wrap;html=1;boundedLbl=1;backgroundOutline=1;size=15;" vertex="1" parent="1">
          <mxGeometry x="610" y="550" width="60" height="80" as="geometry" />
        </mxCell>
        <mxCell id="KTEVZOgNWzoaT1Ab69OT-19" value="Project&lt;div&gt;Database&lt;/div&gt;" style="shape=cylinder3;whiteSpace=wrap;html=1;boundedLbl=1;backgroundOutline=1;size=15;" vertex="1" parent="1">
          <mxGeometry x="750" y="240" width="60" height="80" as="geometry" />
        </mxCell>
        <mxCell id="KTEVZOgNWzoaT1Ab69OT-20" style="edgeStyle=orthogonalEdgeStyle;rounded=0;orthogonalLoop=1;jettySize=auto;html=1;exitX=1;exitY=0.5;exitDx=0;exitDy=0;entryX=1;entryY=0.5;entryDx=0;entryDy=0;entryPerimeter=0;" edge="1" parent="1" source="KTEVZOgNWzoaT1Ab69OT-8" target="KTEVZOgNWzoaT1Ab69OT-16">
          <mxGeometry relative="1" as="geometry" />
        </mxCell>
        <mxCell id="KTEVZOgNWzoaT1Ab69OT-22" value="Log&amp;nbsp;&lt;br&gt;Storage" style="shape=cylinder3;whiteSpace=wrap;html=1;boundedLbl=1;backgroundOutline=1;size=15;" vertex="1" parent="1">
          <mxGeometry x="750" y="390" width="60" height="80" as="geometry" />
        </mxCell>
        <mxCell id="KTEVZOgNWzoaT1Ab69OT-23" style="edgeStyle=orthogonalEdgeStyle;rounded=0;orthogonalLoop=1;jettySize=auto;html=1;exitX=1;exitY=0.25;exitDx=0;exitDy=0;entryX=0;entryY=0;entryDx=0;entryDy=52.5;entryPerimeter=0;" edge="1" parent="1" source="KTEVZOgNWzoaT1Ab69OT-9" target="KTEVZOgNWzoaT1Ab69OT-19">
          <mxGeometry relative="1" as="geometry" />
        </mxCell>
        <mxCell id="KTEVZOgNWzoaT1Ab69OT-25" style="edgeStyle=orthogonalEdgeStyle;rounded=0;orthogonalLoop=1;jettySize=auto;html=1;exitX=1;exitY=0.75;exitDx=0;exitDy=0;entryX=0;entryY=0.5;entryDx=0;entryDy=0;entryPerimeter=0;" edge="1" parent="1" source="KTEVZOgNWzoaT1Ab69OT-9" target="KTEVZOgNWzoaT1Ab69OT-22">
          <mxGeometry relative="1" as="geometry" />
        </mxCell>
        <mxCell id="KTEVZOgNWzoaT1Ab69OT-31" style="edgeStyle=orthogonalEdgeStyle;rounded=0;orthogonalLoop=1;jettySize=auto;html=1;exitX=1;exitY=0.5;exitDx=0;exitDy=0;entryX=1;entryY=0.5;entryDx=0;entryDy=0;" edge="1" parent="1" source="KTEVZOgNWzoaT1Ab69OT-27" target="KTEVZOgNWzoaT1Ab69OT-30">
          <mxGeometry relative="1" as="geometry" />
        </mxCell>
        <mxCell id="KTEVZOgNWzoaT1Ab69OT-27" value="Log Analysis Queue" style="shape=process;whiteSpace=wrap;html=1;backgroundOutline=1;rotation=90;" vertex="1" parent="1">
          <mxGeometry x="869" y="350" width="120" height="60" as="geometry" />
        </mxCell>
        <mxCell id="KTEVZOgNWzoaT1Ab69OT-29" style="edgeStyle=orthogonalEdgeStyle;rounded=0;orthogonalLoop=1;jettySize=auto;html=1;exitX=1;exitY=0.5;exitDx=0;exitDy=0;entryX=0.337;entryY=1.045;entryDx=0;entryDy=0;entryPerimeter=0;" edge="1" parent="1" source="KTEVZOgNWzoaT1Ab69OT-9" target="KTEVZOgNWzoaT1Ab69OT-27">
          <mxGeometry relative="1" as="geometry" />
        </mxCell>
        <mxCell id="KTEVZOgNWzoaT1Ab69OT-30" value="Log Processor&lt;br&gt;Worker Service" style="rounded=0;whiteSpace=wrap;html=1;" vertex="1" parent="1">
          <mxGeometry x="790" y="511" width="120" height="60" as="geometry" />
        </mxCell>
        <mxCell id="KTEVZOgNWzoaT1Ab69OT-32" style="edgeStyle=orthogonalEdgeStyle;rounded=0;orthogonalLoop=1;jettySize=auto;html=1;exitX=0;exitY=0.5;exitDx=0;exitDy=0;entryX=1;entryY=0.5;entryDx=0;entryDy=0;entryPerimeter=0;" edge="1" parent="1" source="KTEVZOgNWzoaT1Ab69OT-30" target="KTEVZOgNWzoaT1Ab69OT-18">
          <mxGeometry relative="1" as="geometry" />
        </mxCell>
        <mxCell id="KTEVZOgNWzoaT1Ab69OT-33" style="edgeStyle=orthogonalEdgeStyle;rounded=0;orthogonalLoop=1;jettySize=auto;html=1;exitX=0.5;exitY=1;exitDx=0;exitDy=0;entryX=0.5;entryY=0;entryDx=0;entryDy=0;entryPerimeter=0;" edge="1" parent="1" source="KTEVZOgNWzoaT1Ab69OT-10" target="KTEVZOgNWzoaT1Ab69OT-18">
          <mxGeometry relative="1" as="geometry" />
        </mxCell>
        <mxCell id="KTEVZOgNWzoaT1Ab69OT-34" value="Service Discovery&lt;br&gt;Microservice" style="rounded=0;whiteSpace=wrap;html=1;" vertex="1" parent="1">
          <mxGeometry x="520" y="680" width="120" height="60" as="geometry" />
        </mxCell>
        <mxCell id="KTEVZOgNWzoaT1Ab69OT-35" value="Config Server&lt;div&gt;Microservice&lt;/div&gt;" style="rounded=0;whiteSpace=wrap;html=1;" vertex="1" parent="1">
          <mxGeometry x="680" y="680" width="120" height="60" as="geometry" />
        </mxCell>
      </root>
    </mxGraphModel>
  </diagram>
</mxfile>
